<svg width="75" height="78" viewBox="0 0 75 78" fill="none" xmlns="http://www.w3.org/2000/svg">
<path d="M4.64169 27H44.6254V44.3902C44.6254 46.9711 42.5489 49.0604 39.9837 49.0604H0V31.6702C0 29.1098 2.07655 27 4.64169 27Z" fill="#1D1D1D"/>
<path fill-rule="evenodd" clip-rule="evenodd" d="M49.6539 27.2426H69.259C72.3863 27.2426 74.9186 29.7905 74.9186 32.937V50.3272H55.3135C52.1862 50.3272 49.6539 47.7794 49.6539 44.6329V27.2426ZM51.6898 29.291V44.6329C51.6898 46.6481 53.3106 48.2789 55.3135 48.2789H72.8828V32.937C72.8828 30.9217 71.2619 29.291 69.259 29.291H51.6898Z" fill="#1D1D1D"/>
<path fill-rule="evenodd" clip-rule="evenodd" d="M25.5497 54.9154H69.32C72.4474 54.9154 74.9796 57.4633 74.9796 60.6098V78H31.2093C28.082 78 25.5497 75.4522 25.5497 72.3057V54.9154ZM27.5855 56.9638V72.3057C27.5855 74.3209 29.2063 75.9517 31.2093 75.9517H72.9438V60.6098C72.9438 58.5945 71.323 56.9638 69.32 56.9638H27.5855Z" fill="#1D1D1D"/>
<path d="M4.64169 55.4275H20.6026V72.8178C20.6026 75.3986 18.5261 77.4879 15.9609 77.4879H0V60.0977C0 57.5373 2.07655 55.4275 4.64169 55.4275Z" fill="#1D1D1D"/>
<path d="M4.64169 0H74.3689V17.3902C74.3689 19.9711 72.2923 22.0604 69.7272 22.0604H0V4.67017C0 2.08929 2.07655 0 4.64169 0Z" fill="#1D1D1D"/>
</svg>
